<mxfile host="app.diagrams.net" modified="2023-11-22T08:18:11.134Z" agent="Mozilla/5.0 (Windows NT 10.0; Win64; x64) AppleWebKit/537.36 (KHTML, like Gecko) Chrome/119.0.0.0 Safari/537.36" etag="z2c67iHy4TSpJEPVMSGj" version="22.1.3" type="google">
  <diagram name="Page-1" id="c5G7CeHf_UwGjJhBK27U">
    <mxGraphModel grid="1" page="1" gridSize="10" guides="1" tooltips="1" connect="1" arrows="1" fold="1" pageScale="1" pageWidth="827" pageHeight="1169" math="0" shadow="0">
      <root>
        <mxCell id="0" />
        <mxCell id="1" parent="0" />
        <mxCell id="NaAtIMm-xTfxLxhDLTir-5" value="Dock Pane" style="shape=module;align=left;spacingLeft=20;align=center;verticalAlign=top;whiteSpace=wrap;html=1;" vertex="1" parent="1">
          <mxGeometry x="-1013" y="36" width="300" height="850" as="geometry" />
        </mxCell>
        <mxCell id="NaAtIMm-xTfxLxhDLTir-6" value="WPF" style="shape=module;align=left;spacingLeft=20;align=center;verticalAlign=top;whiteSpace=wrap;html=1;" vertex="1" parent="1">
          <mxGeometry x="-993" y="76" width="265" height="800" as="geometry" />
        </mxCell>
        <mxCell id="NaAtIMm-xTfxLxhDLTir-7" value="WebView2" style="shape=module;align=left;spacingLeft=20;align=center;verticalAlign=top;whiteSpace=wrap;html=1;" vertex="1" parent="1">
          <mxGeometry x="-973" y="116" width="227.5" height="750" as="geometry" />
        </mxCell>
        <mxCell id="NaAtIMm-xTfxLxhDLTir-8" value="Login" style="html=1;dropTarget=0;whiteSpace=wrap;" vertex="1" parent="1">
          <mxGeometry x="-949.25" y="156" width="196.25" height="74" as="geometry" />
        </mxCell>
        <mxCell id="NaAtIMm-xTfxLxhDLTir-9" value="" style="shape=module;jettyWidth=8;jettyHeight=4;" vertex="1" parent="NaAtIMm-xTfxLxhDLTir-8">
          <mxGeometry x="1" width="20" height="20" relative="1" as="geometry">
            <mxPoint x="-27" y="7" as="offset" />
          </mxGeometry>
        </mxCell>
        <mxCell id="NaAtIMm-xTfxLxhDLTir-10" value="Upload" style="html=1;dropTarget=0;whiteSpace=wrap;" vertex="1" parent="1">
          <mxGeometry x="-949.25" y="240" width="196.25" height="620" as="geometry" />
        </mxCell>
        <mxCell id="NaAtIMm-xTfxLxhDLTir-11" value="" style="shape=module;jettyWidth=8;jettyHeight=4;" vertex="1" parent="NaAtIMm-xTfxLxhDLTir-10">
          <mxGeometry x="1" width="20" height="20" relative="1" as="geometry">
            <mxPoint x="-27" y="7" as="offset" />
          </mxGeometry>
        </mxCell>
        <mxCell id="NaAtIMm-xTfxLxhDLTir-12" value="Download" style="html=1;dropTarget=0;whiteSpace=wrap;" vertex="1" parent="1">
          <mxGeometry x="-940.75" y="451" width="179.25" height="159" as="geometry" />
        </mxCell>
        <mxCell id="NaAtIMm-xTfxLxhDLTir-13" value="" style="shape=module;jettyWidth=8;jettyHeight=4;" vertex="1" parent="NaAtIMm-xTfxLxhDLTir-12">
          <mxGeometry x="1" width="20" height="20" relative="1" as="geometry">
            <mxPoint x="-27" y="7" as="offset" />
          </mxGeometry>
        </mxCell>
        <mxCell id="NaAtIMm-xTfxLxhDLTir-14" value="Issue Manager" style="html=1;dropTarget=0;whiteSpace=wrap;" vertex="1" parent="1">
          <mxGeometry x="-940" y="673.13" width="179.25" height="149" as="geometry" />
        </mxCell>
        <mxCell id="NaAtIMm-xTfxLxhDLTir-15" value="" style="shape=module;jettyWidth=8;jettyHeight=4;" vertex="1" parent="NaAtIMm-xTfxLxhDLTir-14">
          <mxGeometry x="1" width="20" height="20" relative="1" as="geometry">
            <mxPoint x="-27" y="7" as="offset" />
          </mxGeometry>
        </mxCell>
        <mxCell id="NaAtIMm-xTfxLxhDLTir-16" value="doLogin()" style="rounded=0;whiteSpace=wrap;html=1;" vertex="1" parent="1">
          <mxGeometry x="90" y="177.75" width="120" height="30" as="geometry" />
        </mxCell>
        <mxCell id="NaAtIMm-xTfxLxhDLTir-21" value="uploadAttributesData()" style="rounded=0;whiteSpace=wrap;html=1;" vertex="1" parent="1">
          <mxGeometry x="60" y="327" width="130" height="30" as="geometry" />
        </mxCell>
        <mxCell id="NaAtIMm-xTfxLxhDLTir-22" value="uploadFiles()" style="rounded=0;whiteSpace=wrap;html=1;" vertex="1" parent="1">
          <mxGeometry x="258" y="327" width="130" height="30" as="geometry" />
        </mxCell>
        <mxCell id="NaAtIMm-xTfxLxhDLTir-23" value="uploadSuccess()" style="rounded=0;whiteSpace=wrap;html=1;" vertex="1" parent="1">
          <mxGeometry x="453" y="327" width="130" height="30" as="geometry" />
        </mxCell>
        <mxCell id="NaAtIMm-xTfxLxhDLTir-24" value="uploadFailure()" style="rounded=0;whiteSpace=wrap;html=1;" vertex="1" parent="1">
          <mxGeometry x="453" y="282.5" width="130" height="30" as="geometry" />
        </mxCell>
        <mxCell id="NaAtIMm-xTfxLxhDLTir-26" value="getDownloadStatus()" style="rounded=0;whiteSpace=wrap;html=1;" vertex="1" parent="1">
          <mxGeometry x="90" y="475" width="121" height="30" as="geometry" />
        </mxCell>
        <mxCell id="NaAtIMm-xTfxLxhDLTir-27" value="DownloadFileCompleted()" style="rounded=0;whiteSpace=wrap;html=1;" vertex="1" parent="1">
          <mxGeometry x="735.5" y="476.25" width="150" height="30" as="geometry" />
        </mxCell>
        <mxCell id="NaAtIMm-xTfxLxhDLTir-28" value="openFiles()" style="rounded=0;whiteSpace=wrap;html=1;" vertex="1" parent="1">
          <mxGeometry x="340.5" y="540" width="150" height="30" as="geometry" />
        </mxCell>
        <mxCell id="NaAtIMm-xTfxLxhDLTir-29" value="closeFiles()" style="rounded=0;whiteSpace=wrap;html=1;" vertex="1" parent="1">
          <mxGeometry x="340.5" y="610" width="150" height="30" as="geometry" />
        </mxCell>
        <mxCell id="NaAtIMm-xTfxLxhDLTir-30" value="stopDownload()" style="rounded=0;whiteSpace=wrap;html=1;" vertex="1" parent="1">
          <mxGeometry x="735.5" y="430" width="150" height="30" as="geometry" />
        </mxCell>
        <mxCell id="NaAtIMm-xTfxLxhDLTir-31" value="CaptureView()" style="rounded=0;whiteSpace=wrap;html=1;" vertex="1" parent="1">
          <mxGeometry x="430" y="675.88" width="120" height="30" as="geometry" />
        </mxCell>
        <mxCell id="NaAtIMm-xTfxLxhDLTir-32" value="RenderView()" style="rounded=0;whiteSpace=wrap;html=1;" vertex="1" parent="1">
          <mxGeometry x="230" y="806.25" width="120" height="30" as="geometry" />
        </mxCell>
        <mxCell id="NaAtIMm-xTfxLxhDLTir-37" value="logout()" style="rounded=0;whiteSpace=wrap;html=1;" vertex="1" parent="1">
          <mxGeometry x="70" y="837.5" width="120" height="30" as="geometry" />
        </mxCell>
        <mxCell id="NaAtIMm-xTfxLxhDLTir-38" value="uploadCancel()" style="rounded=0;whiteSpace=wrap;html=1;" vertex="1" parent="1">
          <mxGeometry x="453" y="372.5" width="130" height="30" as="geometry" />
        </mxCell>
        <mxCell id="NaAtIMm-xTfxLxhDLTir-39" value="Asite CDE" style="ellipse;shape=cloud;whiteSpace=wrap;html=1;" vertex="1" parent="1">
          <mxGeometry x="1052" y="319" width="240" height="270" as="geometry" />
        </mxCell>
        <mxCell id="NaAtIMm-xTfxLxhDLTir-51" value="Create Issue" style="rounded=1;fillColor=#0057D8;align=center;strokeColor=none;html=1;whiteSpace=wrap;fontColor=#ffffff;fontSize=12;sketch=0;arcSize=50;" vertex="1" parent="1">
          <mxGeometry x="65" y="679.38" width="110" height="26.5" as="geometry" />
        </mxCell>
        <mxCell id="NaAtIMm-xTfxLxhDLTir-53" value="Edit Issue" style="rounded=1;fillColor=#0057D8;align=center;strokeColor=none;html=1;whiteSpace=wrap;fontColor=#ffffff;fontSize=12;sketch=0;arcSize=50;" vertex="1" parent="1">
          <mxGeometry x="477.5" y="807.75" width="110" height="26.5" as="geometry" />
        </mxCell>
        <mxCell id="NaAtIMm-xTfxLxhDLTir-54" value="Create Comment" style="rounded=1;fillColor=#0057D8;align=center;strokeColor=none;html=1;whiteSpace=wrap;fontColor=#ffffff;fontSize=12;sketch=0;arcSize=50;" vertex="1" parent="1">
          <mxGeometry x="258" y="760.88" width="110" height="26.5" as="geometry" />
        </mxCell>
        <mxCell id="NaAtIMm-xTfxLxhDLTir-55" value="View Issue" style="rounded=1;fillColor=#0057D8;align=center;strokeColor=none;html=1;whiteSpace=wrap;fontColor=#ffffff;fontSize=12;sketch=0;arcSize=50;" vertex="1" parent="1">
          <mxGeometry x="65" y="761.76" width="110" height="26.5" as="geometry" />
        </mxCell>
        <mxCell id="NaAtIMm-xTfxLxhDLTir-56" value="Logout" style="rounded=1;fillColor=#0057D8;align=center;strokeColor=none;html=1;whiteSpace=wrap;fontColor=#ffffff;fontSize=12;sketch=0;arcSize=50;" vertex="1" parent="1">
          <mxGeometry x="-115.5" y="839.5" width="110" height="26.5" as="geometry" />
        </mxCell>
        <mxCell id="NaAtIMm-xTfxLxhDLTir-78" value="" style="edgeStyle=orthogonalEdgeStyle;rounded=0;orthogonalLoop=1;jettySize=auto;html=1;" edge="1" parent="1" source="NaAtIMm-xTfxLxhDLTir-57" target="NaAtIMm-xTfxLxhDLTir-66">
          <mxGeometry relative="1" as="geometry" />
        </mxCell>
        <mxCell id="NaAtIMm-xTfxLxhDLTir-57" value="" style="shape=image;html=1;verticalAlign=top;verticalLabelPosition=bottom;labelBackgroundColor=#ffffff;imageAspect=0;aspect=fixed;image=https://cdn3.iconfinder.com/data/icons/arrows-set-12/512/reset-128.png" vertex="1" parent="1">
          <mxGeometry x="289.25" y="475" width="32.5" height="32.5" as="geometry" />
        </mxCell>
        <mxCell id="NaAtIMm-xTfxLxhDLTir-62" value="Login" style="rounded=1;fillColor=#0057D8;align=center;strokeColor=none;html=1;whiteSpace=wrap;fontColor=#ffffff;fontSize=12;sketch=0;arcSize=50;" vertex="1" parent="1">
          <mxGeometry x="-110.5" y="179.75" width="110" height="26.5" as="geometry" />
        </mxCell>
        <mxCell id="NaAtIMm-xTfxLxhDLTir-66" value="Condition" style="rhombus;whiteSpace=wrap;html=1;fontColor=#000000;fillColor=#ffffc0;strokeColor=#ff0000;" vertex="1" parent="1">
          <mxGeometry x="375.5" y="468.75" width="80" height="45" as="geometry" />
        </mxCell>
        <mxCell id="NaAtIMm-xTfxLxhDLTir-68" value="True" style="edgeStyle=orthogonalEdgeStyle;html=1;align=left;verticalAlign=top;endArrow=open;endSize=8;strokeColor=#ff0000;rounded=0;" edge="1" parent="1">
          <mxGeometry x="-1" y="16" relative="1" as="geometry">
            <mxPoint x="415.5" y="542" as="targetPoint" />
            <mxPoint x="415.5" y="517" as="sourcePoint" />
            <mxPoint as="offset" />
          </mxGeometry>
        </mxCell>
        <mxCell id="NaAtIMm-xTfxLxhDLTir-75" value="" style="endArrow=classic;html=1;rounded=0;exitX=1;exitY=0.5;exitDx=0;exitDy=0;entryX=0;entryY=0.5;entryDx=0;entryDy=0;" edge="1" parent="1" source="NaAtIMm-xTfxLxhDLTir-80" target="NaAtIMm-xTfxLxhDLTir-27">
          <mxGeometry width="50" height="50" relative="1" as="geometry">
            <mxPoint x="654.5" y="475.5" as="sourcePoint" />
            <mxPoint x="685.5" y="476" as="targetPoint" />
          </mxGeometry>
        </mxCell>
        <mxCell id="NaAtIMm-xTfxLxhDLTir-76" value="False" style="edgeStyle=orthogonalEdgeStyle;html=1;align=left;verticalAlign=top;endArrow=open;endSize=8;strokeColor=#ff0000;rounded=0;exitX=1;exitY=0.5;exitDx=0;exitDy=0;entryX=0;entryY=0.5;entryDx=0;entryDy=0;" edge="1" parent="1">
          <mxGeometry x="-0.8062" y="6" relative="1" as="geometry">
            <mxPoint x="575.5" y="492.75" as="targetPoint" />
            <mxPoint x="455.5" y="491" as="sourcePoint" />
            <Array as="points">
              <mxPoint x="455.5" y="492.5" />
            </Array>
            <mxPoint as="offset" />
          </mxGeometry>
        </mxCell>
        <mxCell id="NaAtIMm-xTfxLxhDLTir-79" value="" style="endArrow=classic;html=1;rounded=0;entryX=1;entryY=0.5;entryDx=0;entryDy=0;exitX=0.5;exitY=1;exitDx=0;exitDy=0;" edge="1" parent="1" source="NaAtIMm-xTfxLxhDLTir-27" target="NaAtIMm-xTfxLxhDLTir-28">
          <mxGeometry width="50" height="50" relative="1" as="geometry">
            <mxPoint x="815.5" y="541" as="sourcePoint" />
            <mxPoint x="445.5" y="431" as="targetPoint" />
            <Array as="points">
              <mxPoint x="810.5" y="555" />
            </Array>
          </mxGeometry>
        </mxCell>
        <mxCell id="NaAtIMm-xTfxLxhDLTir-80" value="startDownload()" style="rounded=0;whiteSpace=wrap;html=1;" vertex="1" parent="1">
          <mxGeometry x="584.5" y="476.25" width="90" height="30" as="geometry" />
        </mxCell>
        <mxCell id="NaAtIMm-xTfxLxhDLTir-86" value="" style="endArrow=classic;html=1;rounded=0;exitX=1;exitY=0.5;exitDx=0;exitDy=0;entryX=0;entryY=0.5;entryDx=0;entryDy=0;" edge="1" parent="1" source="NaAtIMm-xTfxLxhDLTir-26" target="NaAtIMm-xTfxLxhDLTir-57">
          <mxGeometry width="50" height="50" relative="1" as="geometry">
            <mxPoint x="335.5" y="560" as="sourcePoint" />
            <mxPoint x="385.5" y="510" as="targetPoint" />
          </mxGeometry>
        </mxCell>
        <mxCell id="NaAtIMm-xTfxLxhDLTir-87" value="" style="endArrow=classic;html=1;rounded=0;exitX=1;exitY=0.25;exitDx=0;exitDy=0;" edge="1" parent="1" source="NaAtIMm-xTfxLxhDLTir-12">
          <mxGeometry width="50" height="50" relative="1" as="geometry">
            <mxPoint x="-190" y="488.5" as="sourcePoint" />
            <mxPoint x="-120" y="489" as="targetPoint" />
          </mxGeometry>
        </mxCell>
        <mxCell id="NaAtIMm-xTfxLxhDLTir-88" value="" style="endArrow=classic;html=1;rounded=0;exitX=0.5;exitY=1;exitDx=0;exitDy=0;entryX=0.5;entryY=0;entryDx=0;entryDy=0;" edge="1" parent="1" source="NaAtIMm-xTfxLxhDLTir-28" target="NaAtIMm-xTfxLxhDLTir-29">
          <mxGeometry width="50" height="50" relative="1" as="geometry">
            <mxPoint x="495.5" y="630" as="sourcePoint" />
            <mxPoint x="545.5" y="580" as="targetPoint" />
          </mxGeometry>
        </mxCell>
        <mxCell id="NaAtIMm-xTfxLxhDLTir-89" value="" style="endArrow=classic;html=1;rounded=0;entryX=0;entryY=0.5;entryDx=0;entryDy=0;exitX=0.4;exitY=0.058;exitDx=0;exitDy=0;exitPerimeter=0;" edge="1" parent="1" source="NaAtIMm-xTfxLxhDLTir-80" target="NaAtIMm-xTfxLxhDLTir-30">
          <mxGeometry width="50" height="50" relative="1" as="geometry">
            <mxPoint x="625.5" y="440" as="sourcePoint" />
            <mxPoint x="545.5" y="580" as="targetPoint" />
            <Array as="points">
              <mxPoint x="620.5" y="445" />
            </Array>
          </mxGeometry>
        </mxCell>
        <mxCell id="NaAtIMm-xTfxLxhDLTir-90" value="Go to issues" style="rounded=1;fillColor=#0057D8;align=center;strokeColor=none;html=1;whiteSpace=wrap;fontColor=#ffffff;fontSize=12;sketch=0;arcSize=50;" vertex="1" parent="1">
          <mxGeometry x="-90" y="734.38" width="110" height="26.5" as="geometry" />
        </mxCell>
        <mxCell id="NaAtIMm-xTfxLxhDLTir-91" value="" style="endArrow=classic;html=1;rounded=0;" edge="1" parent="1">
          <mxGeometry width="50" height="50" relative="1" as="geometry">
            <mxPoint x="-190" y="340" as="sourcePoint" />
            <mxPoint x="-100" y="339" as="targetPoint" />
          </mxGeometry>
        </mxCell>
        <mxCell id="NaAtIMm-xTfxLxhDLTir-99" value="" style="endArrow=classic;html=1;rounded=0;exitX=1;exitY=0.5;exitDx=0;exitDy=0;" edge="1" parent="1">
          <mxGeometry width="50" height="50" relative="1" as="geometry">
            <mxPoint x="5.5" y="339.5" as="sourcePoint" />
            <mxPoint x="60" y="340" as="targetPoint" />
          </mxGeometry>
        </mxCell>
        <mxCell id="NaAtIMm-xTfxLxhDLTir-100" value="" style="endArrow=classic;html=1;rounded=0;entryX=0;entryY=0.5;entryDx=0;entryDy=0;exitX=1;exitY=0.5;exitDx=0;exitDy=0;" edge="1" parent="1" source="NaAtIMm-xTfxLxhDLTir-21" target="NaAtIMm-xTfxLxhDLTir-22">
          <mxGeometry width="50" height="50" relative="1" as="geometry">
            <mxPoint x="130" y="382.5" as="sourcePoint" />
            <mxPoint x="180" y="332.5" as="targetPoint" />
          </mxGeometry>
        </mxCell>
        <mxCell id="NaAtIMm-xTfxLxhDLTir-101" value="" style="endArrow=classic;html=1;rounded=0;entryX=0;entryY=0.5;entryDx=0;entryDy=0;exitX=1;exitY=0.5;exitDx=0;exitDy=0;" edge="1" parent="1">
          <mxGeometry width="50" height="50" relative="1" as="geometry">
            <mxPoint x="388" y="342.5" as="sourcePoint" />
            <mxPoint x="456" y="342.5" as="targetPoint" />
          </mxGeometry>
        </mxCell>
        <mxCell id="NaAtIMm-xTfxLxhDLTir-102" value="" style="endArrow=classic;html=1;rounded=0;entryX=0;entryY=0.5;entryDx=0;entryDy=0;exitX=0.5;exitY=1;exitDx=0;exitDy=0;" edge="1" parent="1" source="NaAtIMm-xTfxLxhDLTir-22" target="NaAtIMm-xTfxLxhDLTir-38">
          <mxGeometry width="50" height="50" relative="1" as="geometry">
            <mxPoint x="130" y="382.5" as="sourcePoint" />
            <mxPoint x="180" y="332.5" as="targetPoint" />
            <Array as="points">
              <mxPoint x="323" y="387.5" />
            </Array>
          </mxGeometry>
        </mxCell>
        <mxCell id="NaAtIMm-xTfxLxhDLTir-103" value="" style="endArrow=classic;html=1;rounded=0;entryX=0;entryY=0.5;entryDx=0;entryDy=0;" edge="1" parent="1" target="NaAtIMm-xTfxLxhDLTir-24">
          <mxGeometry width="50" height="50" relative="1" as="geometry">
            <mxPoint x="320" y="322.5" as="sourcePoint" />
            <mxPoint x="420" y="302.5" as="targetPoint" />
            <Array as="points">
              <mxPoint x="320" y="297.5" />
            </Array>
          </mxGeometry>
        </mxCell>
        <mxCell id="NaAtIMm-xTfxLxhDLTir-105" value="" style="endArrow=classic;html=1;rounded=0;entryX=0;entryY=0.5;entryDx=0;entryDy=0;exitX=1;exitY=0.5;exitDx=0;exitDy=0;" edge="1" parent="1" source="NaAtIMm-xTfxLxhDLTir-8" target="NaAtIMm-xTfxLxhDLTir-62">
          <mxGeometry width="50" height="50" relative="1" as="geometry">
            <mxPoint x="-191" y="224" as="sourcePoint" />
            <mxPoint x="-30" y="330" as="targetPoint" />
          </mxGeometry>
        </mxCell>
        <mxCell id="w1W0A1VWwd_R5ZJ30TFv-2" value="Upload" style="rounded=1;fillColor=#0057D8;align=center;strokeColor=none;html=1;whiteSpace=wrap;fontColor=#ffffff;fontSize=12;sketch=0;arcSize=50;" vertex="1" parent="1">
          <mxGeometry x="-100" y="327" width="110" height="26.5" as="geometry" />
        </mxCell>
        <mxCell id="w1W0A1VWwd_R5ZJ30TFv-4" value="CoreWebView2InitializationCompleted()" style="rounded=0;whiteSpace=wrap;html=1;" vertex="1" parent="1">
          <mxGeometry x="-80" y="135" width="240" height="30" as="geometry" />
        </mxCell>
        <mxCell id="w1W0A1VWwd_R5ZJ30TFv-5" value="" style="endArrow=classic;html=1;rounded=0;exitX=1.007;exitY=0.043;exitDx=0;exitDy=0;exitPerimeter=0;entryX=0;entryY=0.5;entryDx=0;entryDy=0;" edge="1" parent="1" source="NaAtIMm-xTfxLxhDLTir-7" target="w1W0A1VWwd_R5ZJ30TFv-4">
          <mxGeometry width="50" height="50" relative="1" as="geometry">
            <mxPoint x="100" y="380" as="sourcePoint" />
            <mxPoint x="150" y="330" as="targetPoint" />
          </mxGeometry>
        </mxCell>
        <mxCell id="w1W0A1VWwd_R5ZJ30TFv-6" value="" style="endArrow=classic;html=1;rounded=0;exitX=1;exitY=0.5;exitDx=0;exitDy=0;entryX=0;entryY=0.5;entryDx=0;entryDy=0;" edge="1" parent="1" source="NaAtIMm-xTfxLxhDLTir-62" target="NaAtIMm-xTfxLxhDLTir-16">
          <mxGeometry width="50" height="50" relative="1" as="geometry">
            <mxPoint x="100" y="380" as="sourcePoint" />
            <mxPoint x="150" y="330" as="targetPoint" />
          </mxGeometry>
        </mxCell>
        <mxCell id="w1W0A1VWwd_R5ZJ30TFv-11" value="Submit" style="rounded=1;fillColor=#0057D8;align=center;strokeColor=none;html=1;whiteSpace=wrap;fontColor=#ffffff;fontSize=12;sketch=0;arcSize=50;" vertex="1" parent="1">
          <mxGeometry x="250" y="679.38" width="110" height="26.5" as="geometry" />
        </mxCell>
        <mxCell id="w1W0A1VWwd_R5ZJ30TFv-12" value="setCurrentDcData()" style="rounded=0;whiteSpace=wrap;html=1;" vertex="1" parent="1">
          <mxGeometry x="-115.5" y="475" width="120" height="30" as="geometry" />
        </mxCell>
        <mxCell id="w1W0A1VWwd_R5ZJ30TFv-17" value="" style="endArrow=classic;html=1;rounded=0;entryX=0;entryY=0.5;entryDx=0;entryDy=0;" edge="1" parent="1" target="NaAtIMm-xTfxLxhDLTir-26">
          <mxGeometry width="50" height="50" relative="1" as="geometry">
            <mxPoint x="10" y="490" as="sourcePoint" />
            <mxPoint x="280" y="610" as="targetPoint" />
          </mxGeometry>
        </mxCell>
        <mxCell id="w1W0A1VWwd_R5ZJ30TFv-20" value="" style="endArrow=classic;html=1;rounded=0;" edge="1" parent="1">
          <mxGeometry width="50" height="50" relative="1" as="geometry">
            <mxPoint x="168.75" y="774.52" as="sourcePoint" />
            <mxPoint x="258" y="774.51" as="targetPoint" />
          </mxGeometry>
        </mxCell>
        <mxCell id="w1W0A1VWwd_R5ZJ30TFv-21" value="" style="endArrow=classic;html=1;rounded=0;exitX=0.5;exitY=1;exitDx=0;exitDy=0;" edge="1" parent="1" source="NaAtIMm-xTfxLxhDLTir-90">
          <mxGeometry width="50" height="50" relative="1" as="geometry">
            <mxPoint x="130" y="709.38" as="sourcePoint" />
            <mxPoint x="60" y="779.38" as="targetPoint" />
            <Array as="points">
              <mxPoint x="-35" y="779.38" />
            </Array>
          </mxGeometry>
        </mxCell>
        <mxCell id="w1W0A1VWwd_R5ZJ30TFv-22" value="" style="endArrow=classic;html=1;rounded=0;exitX=0.5;exitY=0;exitDx=0;exitDy=0;entryX=0;entryY=0.5;entryDx=0;entryDy=0;" edge="1" parent="1" source="NaAtIMm-xTfxLxhDLTir-90" target="NaAtIMm-xTfxLxhDLTir-51">
          <mxGeometry width="50" height="50" relative="1" as="geometry">
            <mxPoint x="130" y="709.38" as="sourcePoint" />
            <mxPoint x="180" y="659.38" as="targetPoint" />
            <Array as="points">
              <mxPoint x="-35" y="692.38" />
            </Array>
          </mxGeometry>
        </mxCell>
        <mxCell id="w1W0A1VWwd_R5ZJ30TFv-23" value="" style="endArrow=classic;html=1;rounded=0;entryX=0;entryY=0.5;entryDx=0;entryDy=0;exitX=1;exitY=0.5;exitDx=0;exitDy=0;" edge="1" parent="1" source="NaAtIMm-xTfxLxhDLTir-51" target="w1W0A1VWwd_R5ZJ30TFv-11">
          <mxGeometry width="50" height="50" relative="1" as="geometry">
            <mxPoint x="130" y="709.38" as="sourcePoint" />
            <mxPoint x="180" y="659.38" as="targetPoint" />
          </mxGeometry>
        </mxCell>
        <mxCell id="w1W0A1VWwd_R5ZJ30TFv-25" value="" style="endArrow=classic;html=1;rounded=0;entryX=0;entryY=0.5;entryDx=0;entryDy=0;exitX=0.5;exitY=1;exitDx=0;exitDy=0;" edge="1" parent="1" source="NaAtIMm-xTfxLxhDLTir-55" target="NaAtIMm-xTfxLxhDLTir-32">
          <mxGeometry width="50" height="50" relative="1" as="geometry">
            <mxPoint x="130" y="709.38" as="sourcePoint" />
            <mxPoint x="180" y="659.38" as="targetPoint" />
            <Array as="points">
              <mxPoint x="120" y="820" />
            </Array>
          </mxGeometry>
        </mxCell>
        <mxCell id="w1W0A1VWwd_R5ZJ30TFv-27" value="" style="endArrow=classic;html=1;rounded=0;exitX=1;exitY=0.5;exitDx=0;exitDy=0;entryX=0;entryY=0.5;entryDx=0;entryDy=0;" edge="1" parent="1" source="NaAtIMm-xTfxLxhDLTir-14" target="NaAtIMm-xTfxLxhDLTir-90">
          <mxGeometry width="50" height="50" relative="1" as="geometry">
            <mxPoint x="100" y="800" as="sourcePoint" />
            <mxPoint x="150" y="750" as="targetPoint" />
          </mxGeometry>
        </mxCell>
        <mxCell id="w1W0A1VWwd_R5ZJ30TFv-28" value="" style="endArrow=classic;html=1;rounded=0;entryX=0;entryY=0.5;entryDx=0;entryDy=0;" edge="1" parent="1">
          <mxGeometry width="50" height="50" relative="1" as="geometry">
            <mxPoint x="360" y="692" as="sourcePoint" />
            <mxPoint x="430" y="692.13" as="targetPoint" />
          </mxGeometry>
        </mxCell>
        <mxCell id="w1W0A1VWwd_R5ZJ30TFv-29" value="" style="endArrow=classic;html=1;rounded=0;entryX=0;entryY=0.5;entryDx=0;entryDy=0;exitX=0.996;exitY=0.977;exitDx=0;exitDy=0;exitPerimeter=0;" edge="1" parent="1" source="NaAtIMm-xTfxLxhDLTir-7" target="NaAtIMm-xTfxLxhDLTir-56">
          <mxGeometry width="50" height="50" relative="1" as="geometry">
            <mxPoint x="100" y="800" as="sourcePoint" />
            <mxPoint x="150" y="750" as="targetPoint" />
          </mxGeometry>
        </mxCell>
        <mxCell id="w1W0A1VWwd_R5ZJ30TFv-30" value="" style="endArrow=classic;html=1;rounded=0;entryX=0;entryY=0.5;entryDx=0;entryDy=0;exitX=1;exitY=0.5;exitDx=0;exitDy=0;" edge="1" parent="1" source="NaAtIMm-xTfxLxhDLTir-56" target="NaAtIMm-xTfxLxhDLTir-37">
          <mxGeometry width="50" height="50" relative="1" as="geometry">
            <mxPoint x="100" y="800" as="sourcePoint" />
            <mxPoint x="150" y="750" as="targetPoint" />
          </mxGeometry>
        </mxCell>
        <mxCell id="w1W0A1VWwd_R5ZJ30TFv-32" value="" style="endArrow=classic;startArrow=classic;html=1;rounded=0;entryX=0;entryY=0.5;entryDx=0;entryDy=0;exitX=1;exitY=0.5;exitDx=0;exitDy=0;" edge="1" parent="1" source="NaAtIMm-xTfxLxhDLTir-32" target="NaAtIMm-xTfxLxhDLTir-53">
          <mxGeometry width="50" height="50" relative="1" as="geometry">
            <mxPoint x="60" y="760" as="sourcePoint" />
            <mxPoint x="110" y="710" as="targetPoint" />
          </mxGeometry>
        </mxCell>
        <mxCell id="w1W0A1VWwd_R5ZJ30TFv-33" value="" style="points=[[0.35,0,0],[0.98,0.51,0],[1,0.71,0],[0.67,1,0],[0,0.795,0],[0,0.65,0]];verticalLabelPosition=bottom;sketch=0;html=1;verticalAlign=top;aspect=fixed;align=center;pointerEvents=1;shape=mxgraph.cisco19.user;fillColor=#005073;strokeColor=none;" vertex="1" parent="1">
          <mxGeometry x="-1353" y="382.25" width="117.5" height="117.5" as="geometry" />
        </mxCell>
        <mxCell id="w1W0A1VWwd_R5ZJ30TFv-34" value="" style="endArrow=classic;startArrow=classic;html=1;rounded=0;" edge="1" parent="1">
          <mxGeometry width="50" height="50" relative="1" as="geometry">
            <mxPoint x="-1223" y="436" as="sourcePoint" />
            <mxPoint x="-1013" y="436" as="targetPoint" />
          </mxGeometry>
        </mxCell>
        <mxCell id="w1W0A1VWwd_R5ZJ30TFv-38" value="" style="endArrow=none;html=1;rounded=0;exitX=1;exitY=0.5;exitDx=0;exitDy=0;" edge="1" parent="1" source="NaAtIMm-xTfxLxhDLTir-24">
          <mxGeometry width="50" height="50" relative="1" as="geometry">
            <mxPoint x="740" y="470" as="sourcePoint" />
            <mxPoint x="710" y="298" as="targetPoint" />
          </mxGeometry>
        </mxCell>
        <mxCell id="w1W0A1VWwd_R5ZJ30TFv-39" value="" style="endArrow=none;html=1;rounded=0;exitX=1;exitY=0.5;exitDx=0;exitDy=0;" edge="1" parent="1">
          <mxGeometry width="50" height="50" relative="1" as="geometry">
            <mxPoint x="584.5" y="340" as="sourcePoint" />
            <mxPoint x="711.5" y="340" as="targetPoint" />
          </mxGeometry>
        </mxCell>
        <mxCell id="w1W0A1VWwd_R5ZJ30TFv-40" value="" style="endArrow=none;html=1;rounded=0;exitX=1;exitY=0.5;exitDx=0;exitDy=0;" edge="1" parent="1">
          <mxGeometry width="50" height="50" relative="1" as="geometry">
            <mxPoint x="584.5" y="385.25" as="sourcePoint" />
            <mxPoint x="711.5" y="385.25" as="targetPoint" />
          </mxGeometry>
        </mxCell>
        <mxCell id="w1W0A1VWwd_R5ZJ30TFv-41" value="" style="endArrow=none;html=1;rounded=0;" edge="1" parent="1">
          <mxGeometry width="50" height="50" relative="1" as="geometry">
            <mxPoint x="711" y="387" as="sourcePoint" />
            <mxPoint x="711" y="297" as="targetPoint" />
          </mxGeometry>
        </mxCell>
        <mxCell id="w1W0A1VWwd_R5ZJ30TFv-44" value="" style="shape=flexArrow;endArrow=classic;startArrow=classic;html=1;rounded=0;entryX=0.056;entryY=0.473;entryDx=0;entryDy=0;entryPerimeter=0;exitX=1;exitY=0.5;exitDx=0;exitDy=0;width=3;startSize=7.61;startWidth=7;endWidth=7;endSize=10.04;" edge="1" parent="1" source="NaAtIMm-xTfxLxhDLTir-30" target="NaAtIMm-xTfxLxhDLTir-39">
          <mxGeometry width="100" height="100" relative="1" as="geometry">
            <mxPoint x="710" y="650" as="sourcePoint" />
            <mxPoint x="810" y="550" as="targetPoint" />
          </mxGeometry>
        </mxCell>
        <mxCell id="w1W0A1VWwd_R5ZJ30TFv-45" value="" style="shape=flexArrow;endArrow=classic;startArrow=classic;html=1;rounded=0;entryX=0.55;entryY=0.95;entryDx=0;entryDy=0;entryPerimeter=0;exitX=1;exitY=0.5;exitDx=0;exitDy=0;width=3;startSize=7.61;startWidth=7;endWidth=7;endSize=10.04;" edge="1" parent="1" target="NaAtIMm-xTfxLxhDLTir-39">
          <mxGeometry width="100" height="100" relative="1" as="geometry">
            <mxPoint x="190" y="851.25" as="sourcePoint" />
            <mxPoint x="371" y="854.25" as="targetPoint" />
            <Array as="points">
              <mxPoint x="1182" y="851" />
            </Array>
          </mxGeometry>
        </mxCell>
        <mxCell id="w1W0A1VWwd_R5ZJ30TFv-47" value="" style="shape=flexArrow;endArrow=classic;startArrow=classic;html=1;rounded=0;entryX=0.509;entryY=0.962;entryDx=0;entryDy=0;entryPerimeter=0;exitX=1;exitY=0.5;exitDx=0;exitDy=0;width=3;startSize=7.61;startWidth=7;endWidth=7;endSize=10.04;" edge="1" parent="1" target="NaAtIMm-xTfxLxhDLTir-39">
          <mxGeometry width="100" height="100" relative="1" as="geometry">
            <mxPoint x="493.5" y="623.5" as="sourcePoint" />
            <mxPoint x="674.5" y="626.5" as="targetPoint" />
            <Array as="points">
              <mxPoint x="1170" y="624" />
            </Array>
          </mxGeometry>
        </mxCell>
        <mxCell id="w1W0A1VWwd_R5ZJ30TFv-48" value="" style="shape=flexArrow;endArrow=classic;startArrow=classic;html=1;rounded=0;exitX=1;exitY=0.5;exitDx=0;exitDy=0;width=3;startSize=7.61;startWidth=7;endWidth=7;endSize=10.04;entryX=0.202;entryY=0.263;entryDx=0;entryDy=0;entryPerimeter=0;" edge="1" parent="1" target="NaAtIMm-xTfxLxhDLTir-39">
          <mxGeometry width="100" height="100" relative="1" as="geometry">
            <mxPoint x="710" y="338.75" as="sourcePoint" />
            <mxPoint x="891" y="341.75" as="targetPoint" />
            <Array as="points">
              <mxPoint x="1100" y="340" />
            </Array>
          </mxGeometry>
        </mxCell>
        <mxCell id="w1W0A1VWwd_R5ZJ30TFv-51" value="Asite Revit Plugin User" style="text;html=1;strokeColor=none;fillColor=none;align=center;verticalAlign=middle;whiteSpace=wrap;rounded=0;" vertex="1" parent="1">
          <mxGeometry x="-1333" y="516" width="100" height="30" as="geometry" />
        </mxCell>
        <mxCell id="w1W0A1VWwd_R5ZJ30TFv-52" value="&lt;b&gt;&lt;font style=&quot;font-size: 23px;&quot;&gt;User Interface&lt;/font&gt;&lt;/b&gt;" style="text;html=1;strokeColor=none;fillColor=none;align=center;verticalAlign=middle;whiteSpace=wrap;rounded=0;" vertex="1" parent="1">
          <mxGeometry x="-933" width="180" height="30" as="geometry" />
        </mxCell>
        <mxCell id="w1W0A1VWwd_R5ZJ30TFv-53" value="&lt;span style=&quot;font-size: 23px;&quot;&gt;&lt;b&gt;Backend(Native Code)&lt;/b&gt;&lt;/span&gt;" style="text;html=1;strokeColor=none;fillColor=none;align=center;verticalAlign=middle;whiteSpace=wrap;rounded=0;" vertex="1" parent="1">
          <mxGeometry x="240" y="14" width="250" height="30" as="geometry" />
        </mxCell>
        <mxCell id="LA5E6lgNK3gmhQy50Mgc-1" value="" style="fillColor=#36B37E;strokeColor=none;rounded=1;arcSize=50;sketch=0;hachureGap=4;pointerEvents=0;fontFamily=Architects Daughter;fontSource=https%3A%2F%2Ffonts.googleapis.com%2Fcss%3Ffamily%3DArchitects%2BDaughter;fontSize=20;" vertex="1" parent="1">
          <mxGeometry x="-343" y="351" width="30" height="16" as="geometry" />
        </mxCell>
        <mxCell id="LA5E6lgNK3gmhQy50Mgc-2" value="" style="shape=ellipse;strokeColor=none;fillColor=#ffffff;sketch=0;hachureGap=4;pointerEvents=0;fontFamily=Architects Daughter;fontSource=https%3A%2F%2Ffonts.googleapis.com%2Fcss%3Ffamily%3DArchitects%2BDaughter;fontSize=20;" vertex="1" parent="LA5E6lgNK3gmhQy50Mgc-1">
          <mxGeometry x="1" y="0.5" width="12" height="12" relative="1" as="geometry">
            <mxPoint x="-14" y="-6" as="offset" />
          </mxGeometry>
        </mxCell>
        <mxCell id="LA5E6lgNK3gmhQy50Mgc-3" value="" style="html=1;shadow=0;dashed=0;shape=mxgraph.atlassian.check;strokeColor=#ffffff;sketch=1;hachureGap=4;pointerEvents=0;fontFamily=Architects Daughter;fontSource=https%3A%2F%2Ffonts.googleapis.com%2Fcss%3Ffamily%3DArchitects%2BDaughter;fontSize=20;" vertex="1" parent="LA5E6lgNK3gmhQy50Mgc-1">
          <mxGeometry y="0.5" width="6" height="5" relative="1" as="geometry">
            <mxPoint x="4" y="-3" as="offset" />
          </mxGeometry>
        </mxCell>
        <mxCell id="LA5E6lgNK3gmhQy50Mgc-5" value="" style="fillColor=#36B37E;strokeColor=none;rounded=1;arcSize=50;sketch=0;hachureGap=4;pointerEvents=0;fontFamily=Architects Daughter;fontSource=https%3A%2F%2Ffonts.googleapis.com%2Fcss%3Ffamily%3DArchitects%2BDaughter;fontSize=20;" vertex="1" parent="1">
          <mxGeometry x="-343" y="391" width="30" height="16" as="geometry" />
        </mxCell>
        <mxCell id="LA5E6lgNK3gmhQy50Mgc-6" value="" style="shape=ellipse;strokeColor=none;fillColor=#ffffff;sketch=0;hachureGap=4;pointerEvents=0;fontFamily=Architects Daughter;fontSource=https%3A%2F%2Ffonts.googleapis.com%2Fcss%3Ffamily%3DArchitects%2BDaughter;fontSize=20;" vertex="1" parent="LA5E6lgNK3gmhQy50Mgc-5">
          <mxGeometry x="1" y="0.5" width="12" height="12" relative="1" as="geometry">
            <mxPoint x="-14" y="-6" as="offset" />
          </mxGeometry>
        </mxCell>
        <mxCell id="LA5E6lgNK3gmhQy50Mgc-7" value="" style="html=1;shadow=0;dashed=0;shape=mxgraph.atlassian.check;strokeColor=#ffffff;sketch=1;hachureGap=4;pointerEvents=0;fontFamily=Architects Daughter;fontSource=https%3A%2F%2Ffonts.googleapis.com%2Fcss%3Ffamily%3DArchitects%2BDaughter;fontSize=20;" vertex="1" parent="LA5E6lgNK3gmhQy50Mgc-5">
          <mxGeometry y="0.5" width="6" height="5" relative="1" as="geometry">
            <mxPoint x="4" y="-3" as="offset" />
          </mxGeometry>
        </mxCell>
        <mxCell id="LA5E6lgNK3gmhQy50Mgc-8" value="" style="fillColor=#36B37E;strokeColor=none;rounded=1;arcSize=50;sketch=0;hachureGap=4;pointerEvents=0;fontFamily=Architects Daughter;fontSource=https%3A%2F%2Ffonts.googleapis.com%2Fcss%3Ffamily%3DArchitects%2BDaughter;fontSize=20;" vertex="1" parent="1">
          <mxGeometry x="-343" y="431" width="30" height="16" as="geometry" />
        </mxCell>
        <mxCell id="LA5E6lgNK3gmhQy50Mgc-9" value="" style="shape=ellipse;strokeColor=none;fillColor=#ffffff;sketch=0;hachureGap=4;pointerEvents=0;fontFamily=Architects Daughter;fontSource=https%3A%2F%2Ffonts.googleapis.com%2Fcss%3Ffamily%3DArchitects%2BDaughter;fontSize=20;" vertex="1" parent="LA5E6lgNK3gmhQy50Mgc-8">
          <mxGeometry x="1" y="0.5" width="12" height="12" relative="1" as="geometry">
            <mxPoint x="-14" y="-6" as="offset" />
          </mxGeometry>
        </mxCell>
        <mxCell id="LA5E6lgNK3gmhQy50Mgc-10" value="" style="html=1;shadow=0;dashed=0;shape=mxgraph.atlassian.check;strokeColor=#ffffff;sketch=1;hachureGap=4;pointerEvents=0;fontFamily=Architects Daughter;fontSource=https%3A%2F%2Ffonts.googleapis.com%2Fcss%3Ffamily%3DArchitects%2BDaughter;fontSize=20;" vertex="1" parent="LA5E6lgNK3gmhQy50Mgc-8">
          <mxGeometry y="0.5" width="6" height="5" relative="1" as="geometry">
            <mxPoint x="4" y="-3" as="offset" />
          </mxGeometry>
        </mxCell>
        <mxCell id="LA5E6lgNK3gmhQy50Mgc-11" value="Type Property JSON" style="rounded=1;whiteSpace=wrap;html=1;" vertex="1" parent="1">
          <mxGeometry x="-361" y="279.5" width="70" height="47.5" as="geometry" />
        </mxCell>
        <mxCell id="LA5E6lgNK3gmhQy50Mgc-12" value="" style="endArrow=none;html=1;rounded=0;" edge="1" parent="1">
          <mxGeometry width="50" height="50" relative="1" as="geometry">
            <mxPoint x="-760" y="360" as="sourcePoint" />
            <mxPoint x="-693" y="360" as="targetPoint" />
          </mxGeometry>
        </mxCell>
        <mxCell id="LA5E6lgNK3gmhQy50Mgc-13" value="" style="endArrow=none;html=1;rounded=0;" edge="1" parent="1">
          <mxGeometry width="50" height="50" relative="1" as="geometry">
            <mxPoint x="-693" y="440" as="sourcePoint" />
            <mxPoint x="-693" y="300" as="targetPoint" />
          </mxGeometry>
        </mxCell>
        <mxCell id="LA5E6lgNK3gmhQy50Mgc-14" value="NWC" style="text;whiteSpace=wrap;" vertex="1" parent="1">
          <mxGeometry x="-343" y="327" width="30" height="20" as="geometry" />
        </mxCell>
        <mxCell id="LA5E6lgNK3gmhQy50Mgc-15" value="setRevitUploadWithoutTypePropertyJsonValue()" style="rounded=0;whiteSpace=wrap;html=1;" vertex="1" parent="1">
          <mxGeometry x="-670" y="288.25" width="270" height="20" as="geometry" />
        </mxCell>
        <mxCell id="LA5E6lgNK3gmhQy50Mgc-16" value="" style="endArrow=none;html=1;rounded=0;" edge="1" parent="1" target="LA5E6lgNK3gmhQy50Mgc-15">
          <mxGeometry width="50" height="50" relative="1" as="geometry">
            <mxPoint x="-694" y="300" as="sourcePoint" />
            <mxPoint x="-620" y="302" as="targetPoint" />
          </mxGeometry>
        </mxCell>
        <mxCell id="LA5E6lgNK3gmhQy50Mgc-17" value="" style="endArrow=classic;html=1;rounded=0;entryX=0;entryY=0.5;entryDx=0;entryDy=0;exitX=1;exitY=0.75;exitDx=0;exitDy=0;" edge="1" parent="1" source="LA5E6lgNK3gmhQy50Mgc-15" target="LA5E6lgNK3gmhQy50Mgc-11">
          <mxGeometry width="50" height="50" relative="1" as="geometry">
            <mxPoint x="-670" y="330" as="sourcePoint" />
            <mxPoint x="-620" y="280" as="targetPoint" />
          </mxGeometry>
        </mxCell>
        <mxCell id="LA5E6lgNK3gmhQy50Mgc-20" value="" style="endArrow=classic;html=1;rounded=0;" edge="1" parent="1">
          <mxGeometry width="50" height="50" relative="1" as="geometry">
            <mxPoint x="-693" y="360" as="sourcePoint" />
            <mxPoint x="-342" y="358.5127118644068" as="targetPoint" />
          </mxGeometry>
        </mxCell>
        <mxCell id="LA5E6lgNK3gmhQy50Mgc-21" value="" style="endArrow=classic;html=1;rounded=0;" edge="1" parent="1">
          <mxGeometry width="50" height="50" relative="1" as="geometry">
            <mxPoint x="-694" y="399.74" as="sourcePoint" />
            <mxPoint x="-343" y="398.2527118644068" as="targetPoint" />
          </mxGeometry>
        </mxCell>
        <mxCell id="LA5E6lgNK3gmhQy50Mgc-22" value="" style="endArrow=classic;html=1;rounded=0;" edge="1" parent="1">
          <mxGeometry width="50" height="50" relative="1" as="geometry">
            <mxPoint x="-692" y="440" as="sourcePoint" />
            <mxPoint x="-341" y="438.2527118644068" as="targetPoint" />
          </mxGeometry>
        </mxCell>
        <mxCell id="LA5E6lgNK3gmhQy50Mgc-23" value="IFC" style="text;whiteSpace=wrap;" vertex="1" parent="1">
          <mxGeometry x="-341" y="371" width="30" height="20" as="geometry" />
        </mxCell>
        <mxCell id="LA5E6lgNK3gmhQy50Mgc-24" value="DWFX" style="text;whiteSpace=wrap;" vertex="1" parent="1">
          <mxGeometry x="-345" y="410" width="30" height="20" as="geometry" />
        </mxCell>
        <mxCell id="LA5E6lgNK3gmhQy50Mgc-25" value="" style="endArrow=none;html=1;rounded=0;" edge="1" parent="1">
          <mxGeometry width="50" height="50" relative="1" as="geometry">
            <mxPoint x="-190" y="440" as="sourcePoint" />
            <mxPoint x="-190" y="300" as="targetPoint" />
          </mxGeometry>
        </mxCell>
        <mxCell id="LA5E6lgNK3gmhQy50Mgc-29" value="true" style="text;whiteSpace=wrap;" vertex="1" parent="1">
          <mxGeometry x="-391" y="279.5" width="30" height="20" as="geometry" />
        </mxCell>
        <mxCell id="LA5E6lgNK3gmhQy50Mgc-35" value="" style="endArrow=none;html=1;rounded=0;" edge="1" parent="1">
          <mxGeometry width="50" height="50" relative="1" as="geometry">
            <mxPoint x="-291" y="300" as="sourcePoint" />
            <mxPoint x="-190" y="300" as="targetPoint" />
          </mxGeometry>
        </mxCell>
        <mxCell id="LA5E6lgNK3gmhQy50Mgc-36" value="" style="endArrow=none;html=1;rounded=0;" edge="1" parent="1">
          <mxGeometry width="50" height="50" relative="1" as="geometry">
            <mxPoint x="-310" y="360" as="sourcePoint" />
            <mxPoint x="-190" y="360" as="targetPoint" />
          </mxGeometry>
        </mxCell>
        <mxCell id="LA5E6lgNK3gmhQy50Mgc-37" value="" style="endArrow=none;html=1;rounded=0;" edge="1" parent="1">
          <mxGeometry width="50" height="50" relative="1" as="geometry">
            <mxPoint x="-311" y="398.5" as="sourcePoint" />
            <mxPoint x="-191" y="398.5" as="targetPoint" />
          </mxGeometry>
        </mxCell>
        <mxCell id="LA5E6lgNK3gmhQy50Mgc-38" value="" style="endArrow=none;html=1;rounded=0;" edge="1" parent="1">
          <mxGeometry width="50" height="50" relative="1" as="geometry">
            <mxPoint x="-311" y="438.5" as="sourcePoint" />
            <mxPoint x="-191" y="438.5" as="targetPoint" />
          </mxGeometry>
        </mxCell>
        <mxCell id="LA5E6lgNK3gmhQy50Mgc-40" value="OnLoginSuccess()" style="rounded=0;whiteSpace=wrap;html=1;" vertex="1" parent="1">
          <mxGeometry x="-595" y="236" width="120" height="30" as="geometry" />
        </mxCell>
        <mxCell id="LA5E6lgNK3gmhQy50Mgc-41" value="" style="shape=flexArrow;endArrow=classic;html=1;rounded=0;endWidth=7;endSize=14.78;width=4;entryX=1;entryY=0.5;entryDx=0;entryDy=0;exitX=0.543;exitY=0.13;exitDx=0;exitDy=0;exitPerimeter=0;" edge="1" parent="1" target="LA5E6lgNK3gmhQy50Mgc-40">
          <mxGeometry width="50" height="50" relative="1" as="geometry">
            <mxPoint x="1182" y="354" as="sourcePoint" />
            <mxPoint x="1030" y="235" as="targetPoint" />
            <Array as="points">
              <mxPoint x="1182" y="245" />
            </Array>
          </mxGeometry>
        </mxCell>
        <mxCell id="LA5E6lgNK3gmhQy50Mgc-42" value="" style="endArrow=classic;html=1;rounded=0;entryX=0.749;entryY=0.177;entryDx=0;entryDy=0;entryPerimeter=0;exitX=1;exitY=0.5;exitDx=0;exitDy=0;" edge="1" parent="1" source="NaAtIMm-xTfxLxhDLTir-16">
          <mxGeometry width="50" height="50" relative="1" as="geometry">
            <mxPoint x="210" y="215" as="sourcePoint" />
            <mxPoint x="1232" y="367" as="targetPoint" />
            <Array as="points">
              <mxPoint x="1230" y="190" />
            </Array>
          </mxGeometry>
        </mxCell>
        <mxCell id="LA5E6lgNK3gmhQy50Mgc-44" value="Upload" style="html=1;dropTarget=0;whiteSpace=wrap;" vertex="1" parent="1">
          <mxGeometry x="-940.75" y="312.5" width="179.25" height="121.75" as="geometry" />
        </mxCell>
        <mxCell id="LA5E6lgNK3gmhQy50Mgc-45" value="" style="shape=module;jettyWidth=8;jettyHeight=4;" vertex="1" parent="LA5E6lgNK3gmhQy50Mgc-44">
          <mxGeometry x="1" width="20" height="20" relative="1" as="geometry">
            <mxPoint x="-27" y="7" as="offset" />
          </mxGeometry>
        </mxCell>
        <mxCell id="LA5E6lgNK3gmhQy50Mgc-46" value="" style="endArrow=classic;html=1;rounded=0;exitX=0;exitY=0.5;exitDx=0;exitDy=0;entryX=0.997;entryY=0.017;entryDx=0;entryDy=0;entryPerimeter=0;" edge="1" parent="1" source="LA5E6lgNK3gmhQy50Mgc-40" target="NaAtIMm-xTfxLxhDLTir-10">
          <mxGeometry width="50" height="50" relative="1" as="geometry">
            <mxPoint x="-770" y="410" as="sourcePoint" />
            <mxPoint x="-750" y="250" as="targetPoint" />
          </mxGeometry>
        </mxCell>
      </root>
    </mxGraphModel>
  </diagram>
</mxfile>
